<mxfile host="app.diagrams.net" modified="2024-06-02T15:35:37.291Z" agent="Mozilla/5.0 (Windows NT 10.0; Win64; x64) AppleWebKit/537.36 (KHTML, like Gecko) Chrome/125.0.0.0 Safari/537.36" version="24.4.13" etag="9W9SfPc1a90Ls0wGdJaP" type="github">
  <diagram name="Page-1" id="6eD-KdBMyhYr_pI1caJj">
    <mxGraphModel>
      <root>
        <mxCell id="0" />
        <mxCell id="1" parent="0" />
      </root>
    </mxGraphModel>
  </diagram>
</mxfile>
